<svg width="113" height="32" viewBox="0 0 113 32" fill="none" xmlns="http://www.w3.org/2000/svg">
<path d="M48 8H55.1864C56.904 8 58.4181 8.33145 59.7288 8.99435C61.0546 9.64219 62.0791 10.5612 62.8023 11.7514C63.5405 12.9416 63.9096 14.3277 63.9096 15.9096C63.9096 17.4915 63.5405 18.8776 62.8023 20.0678C62.0791 21.258 61.0546 22.1846 59.7288 22.8475C58.4181 23.4953 56.904 23.8192 55.1864 23.8192H48V8ZM55.0056 20.8136C56.5876 20.8136 57.8456 20.3766 58.7797 19.5028C59.7288 18.6139 60.2034 17.4162 60.2034 15.9096C60.2034 14.403 59.7288 13.2128 58.7797 12.339C57.8456 11.4501 56.5876 11.0056 55.0056 11.0056H51.661V20.8136H55.0056Z" fill="#E00000"/>
<path d="M72.2073 24C70.9267 24 69.7741 23.7363 68.7496 23.209C67.7402 22.6667 66.9493 21.9209 66.3768 20.9718C65.8043 20.0226 65.518 18.9454 65.518 17.7401C65.518 16.5348 65.8043 15.4576 66.3768 14.5085C66.9493 13.5593 67.7402 12.8211 68.7496 12.2938C69.7741 11.7514 70.9267 11.4802 72.2073 11.4802C73.4879 11.4802 74.6329 11.7514 75.6423 12.2938C76.6517 12.8211 77.4427 13.5593 78.0152 14.5085C78.5877 15.4576 78.8739 16.5348 78.8739 17.7401C78.8739 18.9454 78.5877 20.0226 78.0152 20.9718C77.4427 21.9209 76.6517 22.6667 75.6423 23.209C74.6329 23.7363 73.4879 24 72.2073 24ZM72.2073 21.1073C73.1112 21.1073 73.8495 20.806 74.422 20.2034C75.0095 19.5857 75.3033 18.7646 75.3033 17.7401C75.3033 16.7156 75.0095 15.9021 74.422 15.2994C73.8495 14.6817 73.1112 14.3729 72.2073 14.3729C71.3033 14.3729 70.5576 14.6817 69.97 15.2994C69.3824 15.9021 69.0886 16.7156 69.0886 17.7401C69.0886 18.7646 69.3824 19.5857 69.97 20.2034C70.5576 20.806 71.3033 21.1073 72.2073 21.1073Z" fill="#E00000"/>
<path d="M87.1061 24C85.8104 24 84.6428 23.7363 83.6033 23.209C82.5788 22.6667 81.7728 21.9209 81.1852 20.9718C80.6127 20.0226 80.3264 18.9454 80.3264 17.7401C80.3264 16.5348 80.6127 15.4576 81.1852 14.5085C81.7728 13.5593 82.5788 12.8211 83.6033 12.2938C84.6428 11.7514 85.8104 11.4802 87.1061 11.4802C88.3867 11.4802 89.5016 11.7514 90.4507 12.2938C91.415 12.8211 92.1155 13.5819 92.5524 14.5763L89.818 16.0452C89.1852 14.9303 88.2737 14.3729 87.0835 14.3729C86.1645 14.3729 85.4037 14.6742 84.801 15.2768C84.1984 15.8795 83.8971 16.7006 83.8971 17.7401C83.8971 18.7797 84.1984 19.6008 84.801 20.2034C85.4037 20.806 86.1645 21.1073 87.0835 21.1073C88.2888 21.1073 89.2003 20.5499 89.818 19.435L92.5524 20.9266C92.1155 21.8908 91.415 22.6441 90.4507 23.1864C89.5016 23.7288 88.3867 24 87.1061 24Z" fill="#E00000"/>
<path d="M102.601 23.2316C102.254 23.4878 101.825 23.6836 101.312 23.8192C100.815 23.9397 100.288 24 99.7306 24C98.2843 24 97.1618 23.6309 96.3633 22.8927C95.5799 22.1544 95.1882 21.0697 95.1882 19.6384V14.6441H93.3125V11.9322H95.1882V8.97175H98.7136V11.9322H101.742V14.6441H98.7136V19.5932C98.7136 20.1055 98.8417 20.5047 99.0978 20.791C99.369 21.0621 99.7456 21.1977 100.228 21.1977C100.785 21.1977 101.26 21.0471 101.651 20.7458L102.601 23.2316Z" fill="#E00000"/>
<path d="M107.947 13.2655C108.369 12.678 108.934 12.2335 109.642 11.9322C110.365 11.6309 111.194 11.4802 112.128 11.4802V14.7345C111.736 14.7043 111.472 14.6893 111.337 14.6893C110.327 14.6893 109.536 14.9755 108.964 15.548C108.391 16.1055 108.105 16.9492 108.105 18.0791V23.8192H104.58V11.661H107.947V13.2655Z" fill="#E00000"/>
<path fill-rule="evenodd" clip-rule="evenodd" d="M13.363 6.39343C13.9561 6.40699 14.4746 6.79688 14.6523 7.36287L18.6363 20.0502L20.4554 15.5603C20.6672 15.0376 21.1748 14.6956 21.7387 14.6956H26.6154C27.3801 14.6956 28 15.3155 28 16.0802C28 16.8449 27.3801 17.4648 26.6154 17.4648H22.6717L19.7543 24.6655C19.5349 25.2071 18.999 25.5526 18.4151 25.529C17.8313 25.5055 17.325 25.1179 17.15 24.5604L13.2328 12.0857L11.6015 16.555C11.4021 17.1013 10.8824 17.4648 10.3008 17.4648H5.38462C4.61991 17.4648 4 16.8449 4 16.0802C4 15.3155 4.61991 14.6956 5.38462 14.6956H9.33225L12.0307 7.30292C12.2341 6.74564 12.7699 6.37987 13.363 6.39343Z" fill="#E00000"/>
</svg>
