<svg xmlns="http://www.w3.org/2000/svg" viewBox="0 0 243.71 54"><defs><style>.cls-1{fill:#000;}</style></defs><g id="Layer_2" data-name="Layer 2"><g id="Layer_7" data-name="Layer 7"><path class="cls-1" d="M73.2,36.93V37c-.06.28-.12.36-.23.36h-.15c-.12,0-.22-.28-.24-.42L69,14.57l0-.21H64l4.41,26a2.42,2.42,0,0,0,2.31,1.83H75a2.46,2.46,0,0,0,2.3-1.84l4.28-25.7.05-.28H76.83Z"></path><path class="cls-1" d="M93.74,13.84h-3a6.56,6.56,0,0,0-6.63,6.63V35.55a6.56,6.56,0,0,0,6.63,6.63h3a6.56,6.56,0,0,0,6.63-6.63v-3.7h-4.8v3.7a1.71,1.71,0,0,1-1.83,1.82h-3a1.71,1.71,0,0,1-1.83-1.82V28.87h11.43v-8.4A6.56,6.56,0,0,0,93.74,13.84Zm-3,4.8h3a1.72,1.72,0,0,1,1.83,1.83v3.6H88.94v-3.6A1.72,1.72,0,0,1,90.77,18.64Z"></path><path class="cls-1" d="M113.87,13.79h-3a6.64,6.64,0,0,0-6.63,6.63V34.25a4.85,4.85,0,0,0,4.85,4.85c2.18,0,5.49-2.48,6.63-3.38v6.84a1.71,1.71,0,0,1-1.82,1.83h-3a1.72,1.72,0,0,1-1.83-1.83v-1.3h-4.8v1.3a6.56,6.56,0,0,0,6.63,6.63h3a6.49,6.49,0,0,0,6.58-6.53V20.42A6.64,6.64,0,0,0,113.87,13.79Zm-4.8,6.63a1.71,1.71,0,0,1,1.82-1.83h3a1.72,1.72,0,0,1,1.83,1.83v10c-.59.52-4.34,3.85-6.58,3.85a.06.06,0,0,1-.05,0Z"></path><path class="cls-1" d="M132.79,13.84h-.09c-3.77,0-7.59,2.27-7.59,6.63v1.2h4.8v-1.2c0-1.3.81-1.83,2.79-1.83h.09c1.58,0,2.69.13,2.69,1.83v3.42l-6.5,2h0c-2.78,1.07-4.91,2.28-4.91,7.19v4.28a4.86,4.86,0,0,0,4.85,4.85c2.18,0,5.46-2.35,6.58-3.21V41.7h4.81V20.47C140.29,16,136.41,13.89,132.79,13.84Zm2.69,14.64V34c-2.1,1.31-5.57,3.31-6.24,3.31-.1,0-.38-.48-.38-1.93V33.77c0-2.18.11-3.12,1.27-3.61Z"></path><path class="cls-1" d="M153.45,13.84h-3a6.56,6.56,0,0,0-6.63,6.63v1c0,2.63,1.53,4.46,6.54,7.83,4.07,2.75,4.89,3.61,4.89,5.14v1.15a1.7,1.7,0,0,1-1.82,1.82h-3a1.7,1.7,0,0,1-1.82-1.82V31h-4.81v4.52a6.64,6.64,0,0,0,6.63,6.63h3a6.64,6.64,0,0,0,6.63-6.63V33.92c0-2.8-1.33-4.44-6.78-8.36-3.66-2.7-4.65-3.57-4.65-4.61v-.48a1.71,1.71,0,0,1,1.82-1.83h3a1.71,1.71,0,0,1,1.82,1.83v1.2h4.81v-1.2A6.56,6.56,0,0,0,153.45,13.84Z"></path><path class="cls-1" d="M175.45,13.84c-2,0-4.39,1.55-6.87,3.24V4.47h-4.81V35.55a6.64,6.64,0,0,0,2,4.77,6.47,6.47,0,0,0,4.57,1.86h3A6.64,6.64,0,0,0,180,35.55V18.68A4.66,4.66,0,0,0,175.45,13.84ZM168.58,22a40.22,40.22,0,0,1,6.24-3.31c.12,0,.39,0,.39,1V35.6a1.79,1.79,0,0,1-1.88,1.77H170.4a1.7,1.7,0,0,1-1.82-1.82Z"></path><path class="cls-1" d="M195.35,34c-2.11,1.31-5.57,3.31-6.24,3.31-.13,0-.39,0-.39-1.16V14.32h-4.8v23a4.86,4.86,0,0,0,4.85,4.85c2.17,0,5.46-2.32,6.58-3.16V41.7h4.81V14.32h-4.81Z"></path><rect class="cls-1" x="203.71" y="4.47" width="4.8" height="5.57"></rect><path class="cls-1" d="M208.51,35.55V14.32h-4.85V35.55a6.64,6.64,0,0,0,6.63,6.63h2.26V37.37h-2.16A1.73,1.73,0,0,1,208.51,35.55Z"></path><path class="cls-1" d="M219.94,35.55v-21l0-.24V4.52h-4.81v31a6.64,6.64,0,0,0,6.63,6.63H224V37.37h-2.16A1.73,1.73,0,0,1,219.94,35.55Z"></path><path class="cls-1" d="M232.14,7.4h-4.85v6.92h-3.84v4.75h3.84V35.55a6.64,6.64,0,0,0,6.63,6.63h2.26V37.37H234a1.73,1.73,0,0,1-1.88-1.82V19.07h6.06V14.32h-6.06Z"></path><polygon class="cls-1" points="239.31 7.93 239.81 7.93 239.81 10.57 240.3 10.57 240.3 7.93 240.81 7.93 240.81 7.45 239.31 7.45 239.31 7.93"></polygon><polygon class="cls-1" points="243.53 7.45 242.59 7.45 242.44 9.37 242.28 7.45 241.37 7.45 241.17 10.57 241.66 10.57 241.82 7.93 241.85 7.93 242.22 10.53 242.66 10.53 243.03 7.93 243.06 7.93 243.22 10.57 243.71 10.57 243.53 7.45"></polygon><path class="cls-1" d="M37.86,20.34a2.18,2.18,0,0,1,2.21,2.23A1.89,1.89,0,0,1,40,23l-1.51,9.4A4.32,4.32,0,0,1,34.4,36H30.05a3,3,0,0,1-3.07-3,3.71,3.71,0,0,1,.06-.54l2.49-15.72.25-1.53h4.3l-.25,1.53L33,21.71A20.89,20.89,0,0,1,37.86,20.34Zm-2.47,4.81c0-.21-.11-.32-.29-.32a12,12,0,0,0-2.69.73l-1,6.23c0,.05,0,.08,0,.13s.11.27.32.27h2.13a.4.4,0,0,0,.45-.4l1-6.48S35.39,25.21,35.39,25.15Z"></path><path class="cls-1" d="M19.52,31.79c0,.27.14.4.27.4h.94c.13,0,.27-.13.3-.4l1.2-11.15h4.3L24.28,35a1.24,1.24,0,0,1-1.16.92H17.45A1.22,1.22,0,0,1,16.3,35L13.93,20.64h4.36Z"></path><path class="cls-1" d="M27,0A27,27,0,1,0,54,27,27,27,0,0,0,27,0ZM49.07,29.22,40,45a4.43,4.43,0,0,1-3.84,2.22H17.89A4.43,4.43,0,0,1,14.05,45L4.93,29.22a4.46,4.46,0,0,1,0-4.44L14,9a4.46,4.46,0,0,1,3.84-2.22H36.11A4.43,4.43,0,0,1,40,9l9.12,15.78A4.46,4.46,0,0,1,49.07,29.22Z"></path></g></g></svg>
